<svg xmlns="http://www.w3.org/2000/svg" viewBox="0 0 248.98 91.73"><defs><style>.cls-1{fill:#231815;}.cls-2{fill:#e83e3f;}.cls-3{fill:#1958a3;}.cls-4{fill:none;stroke:#231815;stroke-miterlimit:10;stroke-width:0.75px;}</style></defs><title>The Web Conference 2020 | Taipei | April 20-24 2020</title><g><g><path class="cls-1" d="M51.14,44V34h-4V31.29H58.22V34h-4V44Z"/><path class="cls-1" d="M59.68,44V31.29h3V36h4.91V31.29h3V44h-3V38.69H62.68V44Z"/><path class="cls-1" d="M73.52,44V31.29h7.85v2.63h-4.9v2.3h4.19v2.61H76.47v2.52h5V44Z"/><path class="cls-1" d="M58.45,70.13a6.12,6.12,0,0,0-1.74-1.31,4.08,4.08,0,0,0-1.84-.43,3.52,3.52,0,0,0-2.74,1.16,4.2,4.2,0,0,0-1.07,3,4.1,4.1,0,0,0,1.06,2.94,3.6,3.6,0,0,0,2.75,1.13,5.13,5.13,0,0,0,2-.42,7.84,7.84,0,0,0,2-1.26l-.2,3.51a6.68,6.68,0,0,1-1.85.87,7.33,7.33,0,0,1-2.09.3,7,7,0,0,1-2.24-.36,6.44,6.44,0,0,1-2-1.08,6.63,6.63,0,0,1-2-2.44,7.65,7.65,0,0,1-.17-5.9,6.78,6.78,0,0,1,1.45-2.27A6.7,6.7,0,0,1,52.06,66a7,7,0,0,1,2.67-.53,7.51,7.51,0,0,1,2.13.31,7.33,7.33,0,0,1,1.93.94Z"/><path class="cls-1" d="M60.09,72.55a7.49,7.49,0,0,1,.5-2.74,7.06,7.06,0,0,1,1.49-2.3A6.55,6.55,0,0,1,64.24,66a6.67,6.67,0,0,1,2.58-.51,6.74,6.74,0,0,1,6.24,4.27,7.56,7.56,0,0,1,.49,2.76,7.68,7.68,0,0,1-.34,2.33,6.9,6.9,0,0,1-1,2,6.7,6.7,0,0,1-2.38,2,6.61,6.61,0,0,1-7.72-1.3,7,7,0,0,1-1.49-2.28A7.49,7.49,0,0,1,60.09,72.55Zm3.24,0a4.28,4.28,0,0,0,1,2.89,3.24,3.24,0,0,0,5,0,4.29,4.29,0,0,0,1-2.89,4.33,4.33,0,0,0-1-2.9,3.24,3.24,0,0,0-5,0A4.29,4.29,0,0,0,63.33,72.55Z"/><path class="cls-1" d="M75.76,79.16V65.52h.3l8.22,7.71V66h2.91V79.66h-.27L78.66,72v7.21Z"/><path class="cls-1" d="M90.21,79.16V66h8.21v2.69H93.35v2.63h4.53v2.67H93.35v5.22Z"/><path class="cls-1" d="M100.49,79.16V66h8.13v2.72h-5.07v2.39h4.34v2.7h-4.34v2.62h5.14v2.78Z"/><path class="cls-1" d="M111.1,79.16V66h3.4a11.63,11.63,0,0,1,2.52.21,4.28,4.28,0,0,1,1.59.72,3.58,3.58,0,0,1,1.15,1.3,3.53,3.53,0,0,1,.4,1.65,3.8,3.8,0,0,1-.63,2.18,4.11,4.11,0,0,1-1.83,1.47l4,5.68h-3.6L114.61,74h-.45v5.19Zm3.58-10.81h-.52V72h.67a3,3,0,0,0,1.82-.48,1.63,1.63,0,0,0,.63-1.38,1.55,1.55,0,0,0-.62-1.37A3.46,3.46,0,0,0,114.68,68.35Z"/><path class="cls-1" d="M123,79.16V66h8.14v2.72h-5.07v2.39h4.34v2.7h-4.34v2.62h5.14v2.78Z"/><path class="cls-1" d="M133.6,79.16V65.52h.3l8.22,7.71V66H145V79.66h-.27L136.5,72v7.21Z"/><path class="cls-1" d="M157.81,70.13a6.12,6.12,0,0,0-1.74-1.31,4.08,4.08,0,0,0-1.84-.43,3.52,3.52,0,0,0-2.74,1.16,4.2,4.2,0,0,0-1.07,3,4.1,4.1,0,0,0,1.06,2.94,3.6,3.6,0,0,0,2.75,1.13,5.13,5.13,0,0,0,2-.42,7.84,7.84,0,0,0,2-1.26l-.2,3.51a6.74,6.74,0,0,1-1.86.87,7.23,7.23,0,0,1-2.09.3,7,7,0,0,1-2.23-.36,6.44,6.44,0,0,1-2-1.08,6.63,6.63,0,0,1-2-2.44,7.65,7.65,0,0,1-.17-5.9,6.78,6.78,0,0,1,1.45-2.27,6.7,6.7,0,0,1,2.23-1.5,7,7,0,0,1,2.67-.53,7.51,7.51,0,0,1,2.13.31,7.33,7.33,0,0,1,1.93.94Z"/><path class="cls-1" d="M160.27,79.16V66h8.13v2.72h-5.07v2.39h4.35v2.7h-4.35v2.62h5.15v2.78Z"/><path class="cls-1" d="M98.77,60.52,86.85,31.09h6.88l5.55,15.37,6-16.29h.53l6,16.29,5.48-15.37h6.35L111.76,60.52h-.43l-6.1-16.3-6,16.3Z"/><path class="cls-1" d="M126.5,59.59V31.09h17.56V37H133.11v5.15h9.38V48h-9.38V53.6h11.11v6Z"/><path class="cls-1" d="M149.41,59.59V31.09h8.8q5,0,7.52,1.82a6.19,6.19,0,0,1,2.55,5.39A6,6,0,0,1,167.12,42a7.35,7.35,0,0,1-3.5,2.37,7.39,7.39,0,0,1,2.51,13.12c-2,1.4-5,2.09-9,2.09Zm6.19-17.23h2.26a5.05,5.05,0,0,0,3.14-.88A2.94,2.94,0,0,0,162.13,39a2.65,2.65,0,0,0-1.08-2.34,6,6,0,0,0-3.35-.74h-2.1Zm0,12.08h2.83a4.75,4.75,0,0,0,3.21-1,3.43,3.43,0,0,0,1.17-2.75,3.21,3.21,0,0,0-1.14-2.64,5,5,0,0,0-3.24-.94H155.6Z"/><polygon class="cls-2" points="64.26 48.66 48.22 54.42 64.26 59.6 80.44 54.13 64.26 48.66"/><polygon class="cls-3" points="2.86 31.21 36.79 31.21 37.44 27.9 2.21 27.9 2.86 31.21"/><polygon class="cls-3" points="2.86 57.54 36.79 57.54 37.44 54.23 2.21 54.23 2.86 57.54"/><polygon class="cls-3" points="2.86 83.86 36.79 83.86 37.44 80.55 2.21 80.55 2.86 83.86"/><path class="cls-2" d="M39.65,16.62h0A68.91,68.91,0,0,0,19.82,19.4h0A68.8,68.8,0,0,0,0,16.62H0l1.32,6.74h37l1.32-6.74Z"/><path class="cls-2" d="M19.82,45.73h0A68.16,68.16,0,0,0,0,42.94l1.32,6.75h37l1.32-6.75A68.36,68.36,0,0,0,19.82,45.73Z"/><path class="cls-2" d="M19.82,72.05h0A68.8,68.8,0,0,0,0,69.27L1.32,76h37l1.32-6.74A68.91,68.91,0,0,0,19.82,72.05Z"/><polygon class="cls-3" points="20.2 35.77 21.34 39.09 35.24 39.09 35.89 35.77 20.2 35.77"/><polygon class="cls-3" points="19.45 35.77 3.75 35.77 4.41 39.09 18.31 39.09 19.45 35.77"/><polygon class="cls-3" points="20.2 62.1 21.34 65.41 35.24 65.41 35.89 62.1 20.2 62.1"/><polygon class="cls-3" points="19.45 62.1 3.75 62.1 4.41 65.41 18.31 65.41 19.45 62.1"/><polygon class="cls-3" points="20.2 88.42 21.34 91.73 35.24 91.73 35.89 88.42 20.2 88.42"/><polygon class="cls-3" points="19.45 88.42 3.75 88.42 4.41 91.73 18.31 91.73 19.45 88.42"/><path class="cls-3" d="M19.82,15.16h0s1.49-.5,4.06-1.06A54.07,54.07,0,0,1,26.07,0H13.58a54.07,54.07,0,0,1,2.19,14.1,41.76,41.76,0,0,1,4.05,1.06Z"/><path class="cls-1" d="M193.31,51.42v8.34h-1.95V51.42H189.1V49.74h6.46v1.68Z"/><path class="cls-1" d="M204.66,57.66h-4l-.88,2.1h-2.12l4.31-10h1.54l4.19,10h-2.11Zm-.57-1.59-1.43-3.61-1.43,3.61Z"/><path class="cls-1" d="M213.29,49.74v10h-2v-10Z"/><path class="cls-1" d="M221,49.74a3.61,3.61,0,0,1,2.64.76,3.42,3.42,0,0,1,.2,4.66,3.44,3.44,0,0,1-2.54.89H220v3.71h-1.95v-10Zm-1,4.63h.8a2,2,0,0,0,1.28-.32,1.49,1.49,0,0,0,.54-1.17,1.36,1.36,0,0,0-.56-1.14,2.3,2.3,0,0,0-1.38-.32H220Z"/><path class="cls-1" d="M234.18,51.42h-3.61v2.24H234v1.68h-3.46v2.74h3.61v1.68h-5.56v-10h5.56Z"/><path class="cls-1" d="M240.54,49.74v10h-2v-10Z"/><path class="cls-1" d="M191.71,75.46c.22-.26,1.64-1.88,2.07-2.54a3.8,3.8,0,0,0,.72-2,1.77,1.77,0,0,0-1.81-1.84,2,2,0,0,0-1.93,2h-2.44a4.06,4.06,0,0,1,4.26-4.07A3.93,3.93,0,0,1,196.86,71c0,1.87-1.25,3.22-2.2,4.24l-2.1,2.28H197v2h-8.81Z"/><path class="cls-1" d="M202.55,73.43c0-4.17,2.28-6.34,4.7-6.34s4.7,2.17,4.7,6.36-2.28,6.34-4.7,6.34S202.55,77.62,202.55,73.43Zm2.37,0c0,3.17,1.29,4.32,2.33,4.32s2.33-1.15,2.33-4.32-1.31-4.3-2.33-4.3S204.92,70.28,204.92,73.43Z"/><path class="cls-1" d="M220.24,75.46c.22-.26,1.64-1.88,2.08-2.54a3.79,3.79,0,0,0,.71-2,1.77,1.77,0,0,0-1.81-1.84,2,2,0,0,0-1.93,2h-2.44a4.06,4.06,0,0,1,4.26-4.07A3.94,3.94,0,0,1,225.4,71c0,1.87-1.26,3.22-2.21,4.24l-2.09,2.28h4.39v2h-8.82Z"/><path class="cls-1" d="M231.08,73.43c0-4.17,2.28-6.34,4.7-6.34s4.7,2.17,4.7,6.36-2.27,6.34-4.7,6.34S231.08,77.62,231.08,73.43Zm2.37,0c0,3.17,1.29,4.32,2.33,4.32s2.33-1.15,2.33-4.32-1.31-4.3-2.33-4.3S233.45,70.28,233.45,73.43Z"/><path class="cls-1" d="M189.72,37.45l-.92,2.16h-.93l3.51-8,3.43,8h-.94l-.9-2.16Zm1.64-3.84-1.3,3h2.58Z"/><path class="cls-1" d="M196.65,35.54h0a2.07,2.07,0,0,1,.72-.6,2,2,0,0,1,.92-.2,2.06,2.06,0,0,1,.94.2,2.18,2.18,0,0,1,.71.56,2.53,2.53,0,0,1,.46.8,2.93,2.93,0,0,1,0,1.91,2.49,2.49,0,0,1-.44.8,2.43,2.43,0,0,1-.72.54,2.25,2.25,0,0,1-1,.19,2,2,0,0,1-1.63-.79h0v3.33h-.8V34.87h.8Zm1.51-.06a1.47,1.47,0,0,0-.64.14A1.5,1.5,0,0,0,197,36a1.77,1.77,0,0,0-.32.55,2,2,0,0,0-.11.64,2.47,2.47,0,0,0,.1.67,1.88,1.88,0,0,0,.3.58,1.37,1.37,0,0,0,.49.4,1.3,1.3,0,0,0,.67.16,1.45,1.45,0,0,0,.68-.15,1.61,1.61,0,0,0,.5-.39,1.94,1.94,0,0,0,.3-.57,2.26,2.26,0,0,0,.1-.69,1.85,1.85,0,0,0-.11-.67,1.59,1.59,0,0,0-.31-.54,1.42,1.42,0,0,0-.5-.37A1.6,1.6,0,0,0,198.16,35.48Z"/><path class="cls-1" d="M202.73,35.38h0a2.43,2.43,0,0,1,.44-.46.92.92,0,0,1,.61-.18,1.16,1.16,0,0,1,.38.06,1.81,1.81,0,0,1,.35.16l-.39.73-.22-.14a.42.42,0,0,0-.26-.07.68.68,0,0,0-.52.19,1.08,1.08,0,0,0-.28.46,2.13,2.13,0,0,0-.11.57c0,.21,0,.38,0,.54v2.37h-.81V34.87h.81Z"/><path class="cls-1" d="M206.15,32.5a.55.55,0,0,1,.41.18.56.56,0,0,1,.17.4.57.57,0,0,1-.17.41.57.57,0,0,1-.41.16.55.55,0,0,1-.4-.16.57.57,0,0,1-.17-.41.56.56,0,0,1,.17-.4A.53.53,0,0,1,206.15,32.5Zm.41,7.11h-.81V34.87h.81Z"/><path class="cls-1" d="M209.28,39.61h-.8V31.28h.8Z"/><path class="cls-1" d="M219,38.82v.79h-4.93l3.56-4.21a2.63,2.63,0,0,0,.38-.58,1.74,1.74,0,0,0,.14-.69,1.48,1.48,0,0,0-.12-.59,1.54,1.54,0,0,0-.33-.47,1.5,1.5,0,0,0-.48-.3,1.44,1.44,0,0,0-.59-.11,1.56,1.56,0,0,0-.62.12,1.37,1.37,0,0,0-.79.82,1.8,1.8,0,0,0-.12.62h-.85a2.62,2.62,0,0,1,.19-.93,2.29,2.29,0,0,1,.5-.75,2.46,2.46,0,0,1,.73-.49,2.41,2.41,0,0,1,.93-.18,2.53,2.53,0,0,1,.91.16,2.56,2.56,0,0,1,.76.47,2.32,2.32,0,0,1,.53.71,2.13,2.13,0,0,1,.2.91,2.41,2.41,0,0,1-.58,1.61l-2.64,3.09Z"/><path class="cls-1" d="M223.21,31.87a2.07,2.07,0,0,1,.88.18,2.23,2.23,0,0,1,.69.49,3.17,3.17,0,0,1,.52.71,5.18,5.18,0,0,1,.36.84,4.78,4.78,0,0,1,.21.89,4.92,4.92,0,0,1,.07.84,5.54,5.54,0,0,1-.18,1.4,4.66,4.66,0,0,1-.53,1.27,3.12,3.12,0,0,1-.86.91,2,2,0,0,1-1.16.34,2,2,0,0,1-1.16-.34,3.22,3.22,0,0,1-.85-.91,4.66,4.66,0,0,1-.53-1.27,5.54,5.54,0,0,1-.18-1.4,6.15,6.15,0,0,1,.06-.84,5.78,5.78,0,0,1,.22-.89,5.18,5.18,0,0,1,.36-.84,2.89,2.89,0,0,1,.52-.71,2.23,2.23,0,0,1,.69-.49A2.05,2.05,0,0,1,223.21,31.87Zm0,.79a1.24,1.24,0,0,0-.89.34,2.7,2.7,0,0,0-.59.85,4.36,4.36,0,0,0-.31,1,5,5,0,0,0-.08,1,4.83,4.83,0,0,0,0,.6,4.28,4.28,0,0,0,.13.68,4.12,4.12,0,0,0,.24.67,2.24,2.24,0,0,0,.35.58,1.87,1.87,0,0,0,.48.41,1.3,1.3,0,0,0,1.25,0,1.87,1.87,0,0,0,.48-.41,2.24,2.24,0,0,0,.35-.58,4.12,4.12,0,0,0,.24-.67,4.28,4.28,0,0,0,.13-.68,4.54,4.54,0,0,0,.05-.6,5,5,0,0,0-.08-1,4.36,4.36,0,0,0-.31-1,2.7,2.7,0,0,0-.59-.85A1.25,1.25,0,0,0,223.21,32.66Z"/><path class="cls-1" d="M228.67,36.81v.74H226.6v-.74Z"/><path class="cls-1" d="M234.27,38.82v.79h-4.93l3.57-4.21a2.58,2.58,0,0,0,.37-.58,1.74,1.74,0,0,0,.14-.69,1.48,1.48,0,0,0-.12-.59,1.54,1.54,0,0,0-.33-.47,1.5,1.5,0,0,0-.48-.3,1.4,1.4,0,0,0-.58-.11,1.61,1.61,0,0,0-.63.12,1.49,1.49,0,0,0-.48.32,1.69,1.69,0,0,0-.31.5,2.07,2.07,0,0,0-.12.62h-.84a2.41,2.41,0,0,1,.19-.93,2.27,2.27,0,0,1,.49-.75,2.51,2.51,0,0,1,.74-.49,2.34,2.34,0,0,1,.93-.18,2.57,2.57,0,0,1,.91.16,2.69,2.69,0,0,1,.76.47,2.29,2.29,0,0,1,.52.71,2.13,2.13,0,0,1,.2.91,2.4,2.4,0,0,1-.57,1.61l-2.64,3.09Z"/><path class="cls-1" d="M241.15,37.59v.79h-.94v1.23h-.85V38.38h-3.9l4.73-6.8h0v6Zm-1.79-3.44h0L237,37.59h2.41Z"/><line class="cls-4" x1="181.09" y1="30.62" x2="181.09" y2="80.22"/><line class="cls-4" x1="248.6" y1="30.6" x2="248.6" y2="80.21"/></g></g></svg>